<?xml version="1.0" standalone="no"?><!DOCTYPE svg PUBLIC "-//W3C//DTD SVG 1.1//EN" "http://www.w3.org/Graphics/SVG/1.1/DTD/svg11.dtd"><svg t="1576051186098" class="icon" viewBox="0 0 1024 1024" version="1.1" xmlns="http://www.w3.org/2000/svg" p-id="4275" xmlns:xlink="http://www.w3.org/1999/xlink" width="16" height="16"><defs><style type="text/css"></style></defs><path d="M926.44 731.992h-109.864L793.016 318.8l5.096 89.4 9.728 170.384 9.208 161.48 9.912 173.72 5.136 90.2H191.912l5.152-90.384 9.888-173.632 0.464-7.984 23.568-413.184-23.568 413.184H97.552c-46.2 0-81.968-40.44-76.328-86.296L77.28 190.184a219.472 219.472 0 0 1 62.48-106.776 219.424 219.424 0 0 1 117.816-57.368l39.816-6.04h0.664a234.688 234.688 0 0 0 84.704 100.576A232.576 232.576 0 0 0 512 159.536c95.568 0 177.712-57.368 213.936-139.536h0.664l39.816 6.04a219.44 219.44 0 0 1 117.808 57.368 219.312 219.312 0 0 1 62.464 106.776l56.088 455.512c5.64 45.856-30.128 86.296-76.32 86.296z" fill="#038A90" p-id="4276"></path><path d="M884.224 83.408C822.68 228.232 679.008 330.04 512 330.04c-167.016 0-310.688-101.8-372.224-246.632a219.432 219.432 0 0 1 117.808-57.368l39.816-6.04h0.664a234.688 234.688 0 0 0 84.704 100.576A232.576 232.576 0 0 0 512 159.536c95.568 0 177.712-57.368 213.936-139.536h0.664l39.816 6.04a219.44 219.44 0 0 1 117.816 57.368z" fill="#FFECA0" p-id="4277"></path><path d="M512 269.8a344.04 344.04 0 0 1-282.216-147.376 20 20 0 0 1 32.832-22.856 304.016 304.016 0 0 0 249.376 130.232c78.464 0 152.928-29.792 209.656-83.888a20 20 0 0 1 27.6 28.952C685.048 236.08 600.792 269.8 512 269.8zM777.8 131a20.08 20.08 0 0 1-11.104-3.384 19.144 19.144 0 0 1-3.04-2.48 20.16 20.16 0 0 1-5.48-18.04 20.288 20.288 0 0 1 5.48-10.24 20.288 20.288 0 0 1 10.224-5.464 19.792 19.792 0 0 1 11.552 1.144 19.736 19.736 0 0 1 8.984 7.36 20.432 20.432 0 0 1 2.976 7.2c0.264 1.28 0.4 2.6 0.4 3.904 0 5.256-2.136 10.416-5.864 14.136a19.736 19.736 0 0 1-6.504 4.32 19.632 19.632 0 0 1-7.632 1.536z" fill="#000000" p-id="4278"></path><path d="M826.944 913.792c-7.824-4.16-17.28-6.984-30.272-6.984-47.52 0-47.52 37.992-95 37.992-47.464 0-47.464-37.992-94.92-37.992-47.48 0-47.48 37.992-94.96 37.992-47.488 0-47.488-37.992-94.944-37.992-47.44 0-47.44 37.992-94.928 37.992-47.456 0-47.456-37.992-94.944-37.992-12.816 0-22.16 2.768-29.92 6.8l9.888-173.632c5.656-1.728 12.192-2.768 20.04-2.768 47.48 0 47.48 37.968 94.936 37.968 47.48 0 47.48-37.968 94.928-37.968 47.456 0 47.456 37.968 94.936 37.968 47.488 0 47.488-37.968 94.96-37.968 47.464 0 47.464 37.968 94.928 37.968 47.48 0 47.48-37.968 95-37.968 7.984 0 14.624 1.064 20.36 2.864l9.912 173.72z" fill="#FFD373" p-id="4279"></path><path d="M807.84 578.616c-0.024-0.016 0-0.016-0.048-0.016a76.352 76.352 0 0 0-11.152-0.784c-47.52 0-47.52 37.992-95.008 37.992-47.456 0-47.456-38-94.92-38-47.48 0-47.48 38-94.96 38s-47.48-38-94.944-38c-47.44 0-47.44 38-94.92 38-47.456 0-47.456-38-94.944-38-3.872 0-7.416 0.264-10.712 0.728-0.04 0-0.032-0.016-0.072 0l9.72-170.32c0.024-0.024-0.016-0.024 0 0 0.368-0.024 0.704-0.024 1.072-0.024 47.472 0 47.472 37.992 94.936 37.992 47.48 0 47.48-38 94.928-38 47.456 0 47.456 38 94.936 38 47.48 0 47.48-38 94.96-38 47.464 0 47.464 38 94.928 38 47.48 0 47.48-38 95-38 0.48 0 0.96 0 1.424 0.024h0.04l9.728 170.408z" fill="#FFE8C2" p-id="4280"></path><path d="M1022.624 643.248l-56.088-455.512c-0.096-0.8-0.248-1.6-0.44-2.376a239.104 239.104 0 0 0-68.16-116.504A238.56 238.56 0 0 0 769.408 6.264L749.496 3.248 729.6 0.224h-0.032A19.68 19.68 0 0 0 726.6 0h-0.664a20 20 0 0 0-18.296 11.936A213.92 213.92 0 0 1 512 139.528c-42.264 0-83.12-12.32-118.152-35.608a214.016 214.016 0 0 1-77.488-92A20 20 0 0 0 298.064 0h-0.664c-0.992 0-1.992 0.08-2.976 0.224H294.4l-39.808 6.04a238.912 238.912 0 0 0-55 15.192 239.008 239.008 0 0 0-73.536 47.4 239.296 239.296 0 0 0-68.176 116.488 20.32 20.32 0 0 0-0.44 2.4L1.376 643.248a96.976 96.976 0 0 0 23.6 76.04 96.952 96.952 0 0 0 72.576 32.696h88.68l-14.136 254.664-0.16-3.8a20 20 0 0 0 19.968 21.136h640.176a20 20 0 0 0 19.968-21.136l-14.296-250.872h88.696c27.744 0 54.192-11.92 72.576-32.696a96.96 96.96 0 0 0 23.6-76.04zM371.696 137.232A252.528 252.528 0 0 0 512 179.536 253.928 253.928 0 0 0 737.624 41.904l25.792 3.904c2.384 0.368 4.76 0.776 7.12 1.216l2.312 0.472c1.592 0.32 3.176 0.64 4.752 0.992 0.904 0.208 1.8 0.432 2.704 0.648a206.504 206.504 0 0 1 7.112 1.84A192.448 192.448 0 0 1 798.4 54.4a204.208 204.208 0 0 1 6.904 2.512c0.84 0.32 1.68 0.632 2.512 0.96 1.568 0.632 3.12 1.288 4.664 1.96 0.64 0.272 1.28 0.528 1.904 0.8 2.16 0.96 4.312 1.952 6.44 2.992 0.432 0.208 0.856 0.44 1.28 0.648 1.696 0.84 3.384 1.696 5.056 2.576 0.76 0.4 1.504 0.832 2.256 1.24 1.328 0.728 2.656 1.464 3.976 2.224 0.824 0.48 1.64 0.976 2.456 1.464a196.736 196.736 0 0 1 12.144 7.856c1.168 0.824 2.32 1.664 3.48 2.512 0.776 0.568 1.56 1.136 2.328 1.72 1.208 0.92 2.4 1.856 3.6 2.8 0.68 0.544 1.376 1.08 2.056 1.632l0.488 0.416C796.656 223.64 661.624 310.04 512 310.04c-149.624 0-284.656-86.4-347.96-221.336l0.496-0.408c0.68-0.56 1.376-1.096 2.072-1.64 1.184-0.944 2.376-1.88 3.576-2.792 0.784-0.592 1.568-1.16 2.352-1.736a210.136 210.136 0 0 1 5.936-4.192 191.272 191.272 0 0 1 9.632-6.144c0.84-0.504 1.68-1.008 2.52-1.496 1.288-0.744 2.6-1.464 3.904-2.184 0.776-0.424 1.544-0.856 2.32-1.272 1.624-0.864 3.272-1.696 4.92-2.512l1.416-0.72c2.12-1.024 4.256-2.016 6.408-2.968 0.672-0.296 1.344-0.568 2.016-0.856 1.512-0.648 3.024-1.296 4.552-1.904 0.856-0.344 1.712-0.664 2.568-0.992a211.2 211.2 0 0 1 6.88-2.496 187.416 187.416 0 0 1 13.792-4.184c1.44-0.376 2.88-0.728 4.32-1.08l2.664-0.632c1.616-0.36 3.248-0.696 4.88-1.024 0.72-0.144 1.44-0.304 2.168-0.44 2.376-0.44 4.76-0.856 7.152-1.216l25.784-3.92a253.968 253.968 0 0 0 85.328 95.336zM786.64 558.296c-24.44 2.448-38.48 13.68-50.016 22.904-11 8.8-18.264 14.608-34.984 14.608-16.712 0-23.976-5.816-34.96-14.608-13.016-10.424-29.216-23.384-59.96-23.384-30.76 0-46.96 12.96-59.984 23.376-10.992 8.8-18.256 14.616-34.984 14.616-16.72 0-23.984-5.816-34.984-14.616-13.016-10.416-29.208-23.376-59.952-23.376-30.736 0-46.928 12.96-59.936 23.376-11 8.8-18.264 14.616-34.984 14.616-16.712 0-23.976-5.816-34.96-14.608-11.472-9.176-25.4-20.328-49.584-22.856l7.248-127.04c6.16 2.56 11.16 6.56 17.336 11.504 13.016 10.416 29.208 23.376 59.952 23.376 30.768 0 46.96-12.96 59.984-23.384 10.984-8.8 18.24-14.608 34.936-14.608 16.72 0 23.976 5.816 34.96 14.608 13.024 10.424 29.224 23.384 59.984 23.384s46.96-12.96 59.976-23.376c11-8.8 18.264-14.616 34.984-14.616 16.712 0 23.976 5.816 34.96 14.608 13.016 10.424 29.208 23.384 59.96 23.384 30.752 0 46.96-12.96 59.976-23.368 6.32-5.056 11.408-9.128 17.768-11.68l7.264 127.16zM226 757.208h0.984c16.72 0 23.992 5.808 34.984 14.608 13.016 10.408 29.208 23.36 59.952 23.36 30.768 0 46.96-12.96 59.984-23.376 10.984-8.784 18.24-14.592 34.944-14.592 16.712 0 23.968 5.808 34.96 14.6 13.016 10.416 29.224 23.376 59.976 23.376s46.96-12.96 59.976-23.368c10.992-8.8 18.256-14.608 34.984-14.608 16.72 0 23.976 5.808 34.968 14.608 13.016 10.408 29.208 23.36 59.96 23.36 30.744 0 46.944-12.944 59.96-23.352 11.008-8.8 18.288-14.616 35.04-14.616 0.44 0 0.88 0 1.304 0.016l7.416 129.96c-2.84-0.248-5.744-0.368-8.72-0.368-30.784 0-46.992 12.96-60.016 23.376-11 8.8-18.264 14.616-34.984 14.616-16.72 0-23.976-5.816-34.96-14.608-13.016-10.424-29.216-23.384-59.968-23.384-30.752 0-46.96 12.96-59.976 23.376-10.992 8.8-18.256 14.616-34.984 14.616-16.72 0-23.984-5.816-34.984-14.616-13.016-10.416-29.208-23.376-59.96-23.376-30.728 0-46.92 12.96-59.928 23.376-11 8.8-18.264 14.616-34.984 14.616-16.72 0-23.976-5.816-34.968-14.608-13.016-10.424-29.216-23.384-59.976-23.384-2.864 0-5.656 0.112-8.384 0.336l7.4-129.944z m35.936-144.776c13.016 10.416 29.208 23.376 59.96 23.376 30.76 0 46.96-12.968 59.976-23.392 10.984-8.792 18.24-14.6 34.944-14.6 16.712 0 23.968 5.808 34.96 14.608 13.016 10.416 29.216 23.384 59.976 23.384 30.76 0 46.96-12.96 59.976-23.384 11-8.8 18.264-14.608 34.992-14.608 16.704 0 23.968 5.808 34.96 14.608 13.016 10.416 29.2 23.384 59.96 23.384 30.744 0 46.944-12.96 59.968-23.376 9.152-7.32 15.736-12.56 27.312-14.12l6.784 118.92c-30.136 0.272-46.16 13.04-59.048 23.344-11 8.792-18.272 14.6-34.992 14.6s-23.976-5.808-34.96-14.608c-13.016-10.408-29.216-23.36-59.96-23.36-30.752 0-46.96 12.952-59.976 23.36-10.992 8.8-18.256 14.608-34.984 14.608s-24-5.816-34.992-14.608c-13.016-10.408-29.208-23.36-59.952-23.36-30.728 0-46.92 12.944-59.928 23.36-11 8.8-18.264 14.608-34.992 14.608-16.72 0-23.976-5.808-34.96-14.6-12.832-10.264-28.776-22.968-58.672-23.336l6.784-118.88c11.304 1.632 17.832 6.84 26.864 14.064z m-48.856 371.56l3.2-56.176a52.408 52.408 0 0 1 10.704-1.008c16.72 0 23.984 5.816 34.984 14.616 13.016 10.416 29.208 23.376 59.952 23.376 30.768 0 46.968-12.968 59.984-23.392 10.984-8.792 18.24-14.6 34.944-14.6 16.704 0 23.968 5.808 34.96 14.608 13.016 10.416 29.224 23.384 59.984 23.384 30.752 0 46.96-12.96 59.976-23.384 10.992-8.8 18.256-14.608 34.984-14.608 16.704 0 23.968 5.808 34.96 14.608 13.016 10.416 29.2 23.384 59.96 23.384 30.744 0 46.944-12.96 59.968-23.376 11.008-8.8 18.28-14.616 35.032-14.616 4.08 0 7.696 0.344 11.04 1.064l3.2 56.12H213.08z m755.984-291.2a56.936 56.936 0 0 1-42.624 19.2h-90.96c0-0.024 0 0.016 0 0l-22.504-394.32a20 20 0 0 0-39.936 2.272l4.016 70.248c-18.688 4.032-30.496 13.44-40.432 21.384-11 8.8-18.264 14.608-34.984 14.608-16.712 0-23.968-5.816-34.96-14.616-13.016-10.416-29.208-23.376-59.96-23.376-30.76 0-46.96 12.96-59.976 23.376-11 8.8-18.264 14.616-34.992 14.616-16.72 0-23.984-5.816-34.984-14.616-13.008-10.416-29.2-23.376-59.952-23.376-30.736 0-46.928 12.96-59.936 23.376-10.992 8.8-18.256 14.616-34.984 14.616-16.712 0-23.976-5.816-34.96-14.608-9.856-7.888-21.552-17.224-40-21.304l4.016-70.32a20 20 0 0 0-39.936-2.28l-22.496 394.32H97.544a56.928 56.928 0 0 1-56.472-63.856l55.92-454.264c7.032-27.536 19.752-53.04 37.288-75.04 72.312 141.4 217.424 231.2 377.72 231.2 160.288 0 305.408-89.8 377.712-231.2a199.216 199.216 0 0 1 37.28 75.032l55.928 454.272a56.968 56.968 0 0 1-13.856 44.656z" fill="#000000" p-id="4281"></path><path d="M307.08 867.016a20.152 20.152 0 0 1-14.144-5.856 19.736 19.736 0 0 1-4.32-6.504 18.784 18.784 0 0 1-1.144-3.736 19.704 19.704 0 0 1-0.4-3.904c0-5.256 2.144-10.416 5.864-14.136a20.152 20.152 0 0 1 21.8-4.344 20.288 20.288 0 0 1 6.48 4.344c3.72 3.72 5.864 8.88 5.864 14.136 0 1.304-0.144 2.624-0.4 3.904-0.24 1.28-0.64 2.536-1.144 3.736a19.736 19.736 0 0 1-7.36 8.984 20.288 20.288 0 0 1-7.2 2.976c-1.28 0.264-2.6 0.4-3.896 0.4zM716.92 867.016H378.288a20 20 0 1 1 0-40h338.632a20 20 0 1 1 0 40z" fill="#000000" p-id="4282"></path></svg>